<?xml version="1.0" encoding="UTF-8"?>
<svg width="340px" height="142px" viewBox="0 0 340 142" version="1.1" xmlns="http://www.w3.org/2000/svg" xmlns:xlink="http://www.w3.org/1999/xlink">
    <title>Group 8</title>
    <defs>
        <path d="M4.01332598,0.029390564 L148,0.000794411081 C150.209139,-0.000971724109 152.000355,1.78953357 152.000794,3.99867253 C152.000794,3.99911507 152.000794,3.9995576 151.999467,3.99999996 L151.987207,95.9698151 C151.985585,98.1784354 150.195294,99.968843 147.986674,99.9706094 L3.99999992,99.9992056 C1.79086123,100.000972 -0.000355406332,98.2104664 -0.000794147457,96.0013275 C-0.000794235347,96.0008849 -0.000794249796,96.0004424 0.000533203274,96 L0.012792855,4.03018494 C0.0144151007,1.82156458 1.80470574,0.0311570369 4.01332598,0.029390564 Z" id="path-1"></path>
        <linearGradient x1="50%" y1="0%" x2="50%" y2="100%" id="linearGradient-3">
            <stop stop-color="#006DFB" offset="0%"></stop>
            <stop stop-color="#006DFB" stop-opacity="0.1" offset="100%"></stop>
        </linearGradient>
        <linearGradient x1="50%" y1="0%" x2="50%" y2="100%" id="linearGradient-4">
            <stop stop-color="#006DFB" offset="0%"></stop>
            <stop stop-color="#006DFB" stop-opacity="0.1" offset="100%"></stop>
        </linearGradient>
        <path d="M3.99999992,0.000794411081 L147.986674,0.029390564 C150.195294,0.0311570369 151.985585,1.82156458 151.987207,4.03018494 L151.999467,96 C152.001089,98.2091388 150.210466,100.000239 148.001327,100.000533 C148.000885,100.000533 148.000442,100.000533 148,99.9992056 L4.01332598,99.9706094 C1.80470574,99.968843 0.0144151007,98.1784354 0.012792855,95.9698151 L0.000533203274,3.99999996 C-0.00108867084,1.79086116 1.78953359,-0.000238546294 3.99867257,-0.000533026331 C3.99911511,-0.000533085322 3.99955765,-0.000533070872 3.99999992,0.000794411081 Z" id="path-5"></path>
        <rect id="path-6" x="0" y="0" width="188" height="100" rx="4"></rect>
        <filter x="-13.0%" y="-20.5%" width="126.1%" height="149.0%" filterUnits="objectBoundingBox" id="filter-7">
            <feMorphology radius="5" operator="dilate" in="SourceAlpha" result="shadowSpreadOuter1"></feMorphology>
            <feOffset dx="0" dy="4" in="shadowSpreadOuter1" result="shadowOffsetOuter1"></feOffset>
            <feGaussianBlur stdDeviation="4.5" in="shadowOffsetOuter1" result="shadowBlurOuter1"></feGaussianBlur>
            <feComposite in="shadowBlurOuter1" in2="SourceAlpha" operator="out" result="shadowBlurOuter1"></feComposite>
            <feColorMatrix values="0 0 0 0 0   0 0 0 0 0   0 0 0 0 0  0 0 0 0.04 0" type="matrix" in="shadowBlurOuter1"></feColorMatrix>
        </filter>
        <rect id="path-8" x="0" y="0" width="49.7474385" height="25.0124417"></rect>
    </defs>
    <g id="Page-1" stroke="none" stroke-width="1" fill="none" fill-rule="evenodd">
        <g id="homepage-empty-state" transform="translate(-390.000000, -325.000000)">
            <g id="Group-13" transform="translate(389.000000, 337.000000)">
                <g id="Group-8" transform="translate(5.000000, 0.000000)">
                    <g id="Group-14" transform="translate(0.000000, 11.000000)">
                        <g id="Path-4-Copy-4-+-Path-4-Copy-4-+-Path-4-Copy-5-+-701-+-Group-Mask" transform="translate(80.810087, 57.670258) rotate(-6.000000) translate(-80.810087, -57.670258) translate(4.810087, 7.670258)">
                            <mask id="mask-2" fill="white">
                                <use xlink:href="#path-1"></use>
                            </mask>
                            <g id="Mask">
                                <use fill="#FFFFFF" xlink:href="#path-1"></use>
                                <path stroke-opacity="0.5" stroke="#CCE2FF" stroke-width="3" d="M147.998801,-1.49920511 C149.517784,-1.50041949 150.893101,-0.885508594 151.888787,0.109451329 C152.884454,1.10439246 153.500492,2.4794053 153.500794,3.99889412 L153.500794,3.99889412 L153.487207,95.9709168 C153.486092,97.4889568 152.870311,98.8632919 151.87526,99.858408 C150.880209,100.853524 149.505914,101.469395 147.986972,101.470609 L147.986972,101.470609 L4.00119912,101.499205 C2.4822162,101.500419 1.10689865,100.885509 0.111213033,99.8905487 C-0.884453779,98.8956075 -1.50049245,97.5205947 -1.50079413,96.0011059 L-1.50079413,96.0011059 L-1.48720674,4.02908318 C-1.48609173,2.51104315 -0.870310716,1.13670807 0.124740365,0.141592006 C1.11979145,-0.853524056 2.49408632,-1.46939482 4.01302808,-1.47060941 L4.01302808,-1.47060941 Z" fill-opacity="0.24" fill="#CCE2FF"></path>
                            </g>
                            <path d="M0,65.3726714 L3.31761962,63.4589369 L11.3407175,63.8274568 L14.0431798,58.5051604 L22.3896414,60.4791623 L25.6039685,54.4642857 L29.2136883,62.6715097 L33.3564217,66.6679249 L36.7920461,62.2585303 L40.9448942,69.0884978 L48.2648676,60.0118435 L58.6017784,70.8866376 L63.0335468,70.2958202 L66.8146034,56.6408253 L71.0753416,62.9807502 L74.5305823,62.5361552 L77.8883542,57.026141 L84.5443787,76.7857143 L84.4396566,111.607143 L5.39440217,111.607143 C2.41515612,111.607143 0,109.186473 0,106.212975 L0,65.3726714 Z" id="Path-4-Copy-4" fill="url(#linearGradient-3)" opacity="0.2" mask="url(#mask-2)"></path>
                            <path d="M84.5443787,64.0151928 L92.3622501,58.5051604 L103.575285,60.4791623 L107.893565,54.4642857 L112.743035,62.6715097 L118.30858,66.6679249 L122.924162,62.2585303 L128.503296,69.0884978 L138.337298,60.0118435 L152.224397,70.8866376 L158.178246,70.2958202 L163.257897,77.7928031 L168.981976,84.132728 L173.623911,83.688133 L178.134902,78.1781188 L187.076923,79.4642857 L187.076923,111.607143 L89.9485432,111.607143 C86.9639056,111.607143 84.5443787,109.181621 84.5443787,106.205636 L84.5443787,64.0151928 Z" id="Path-4-Copy-4" fill="url(#linearGradient-4)" opacity="0.2" mask="url(#mask-2)" transform="translate(135.810651, 83.035714) scale(-1, 1) translate(-135.810651, -83.035714) "></path>
                            <polyline id="Path-4-Copy-5" stroke="#006DFB" stroke-width="2.7" stroke-linecap="round" mask="url(#mask-2)" points="-1.79881657 66.9642857 3.44225096 63.3100846 11.4893424 63.6725058 14.1998866 58.4382881 22.5713088 60.3796222 25.7952486 54.4642857 29.4157634 62.5356885 33.570886 66.4659672 37.0167848 62.1295436 41.1820523 68.846482 48.5239165 59.9200371 58.8917404 70.6148645 63.3367624 70.0338245 67.1291264 56.6048058 71.4026066 62.8398115 74.8681805 62.402574 78.235994 56.9837449 82.2011834 78.5714286"></polyline>
                            <path d="M22.1353969,35.5787274 C22.0996046,32.6819578 22.8333459,28.9776038 25.8935839,26.2037274 L25.8935839,23.3596263 L16.2833629,23.3596263 L16.2833629,26.3441769 L22.2427737,26.3441769 C22.2477846,26.3441769 22.2233313,26.3593173 22.1595924,26.4188881 L22.0951091,26.4815128 C21.896276,26.6811713 21.4775352,27.1566769 20.7216027,28.2578005 C18.5141361,31.3468715 18.1910185,34.8547558 18.1767097,35.4806547 L18.1767322,35.5537641 C18.1774101,35.5702579 18.1786877,35.5787274 18.1803525,35.5787274 L22.1353969,35.5787274 Z M33.0699314,35.7191769 C35.3248435,35.7191769 38.3671854,34.1917892 38.3671854,29.4691769 C38.3671854,24.7465645 35.3248435,23.2191769 33.0520352,23.2191769 C30.8150192,23.2191769 27.7726773,24.7465645 27.7726773,29.4691769 C27.7726773,34.1917892 30.8150192,35.7191769 33.0699314,35.7191769 Z M33.0520352,33.0330814 C31.2445263,33.0330814 31.1729417,30.750778 31.1729417,29.4691769 C31.1729417,28.1524634 31.2445263,25.9052724 33.0878275,25.9052724 C34.8774403,25.9052724 34.966921,28.2051319 34.966921,29.4691769 C34.966921,30.7683342 34.8774403,33.0330814 33.0520352,33.0330814 Z M47.7626528,35.5787274 L47.7626528,23.3596263 L44.8276878,23.3596263 C44.720311,25.378587 42.9306981,26.0457218 41.1231892,26.0106095 L41.1231892,28.5386994 L44.0402581,28.5386994 L44.0402581,35.5787274 L47.7626528,35.5787274 Z" id="701" fill="#006DFB" fill-rule="nonzero" mask="url(#mask-2)"></path>
                            <g id="Group" mask="url(#mask-2)" stroke="#006DFB" stroke-linecap="round" stroke-width="3.24">
                                <g transform="translate(58.555552, 24.112034)">
                                    <line x1="5.3964497" y1="0" x2="5.3964497" y2="10.7142857" id="Path-3"></line>
                                    <polyline id="Path-4" stroke-linejoin="round" points="0 4.28571429 5.3964497 0 10.7928994 4.28571429"></polyline>
                                </g>
                            </g>
                        </g>
                        <g id="Group-9" transform="translate(251.810087, 57.670258) rotate(6.000000) translate(-251.810087, -57.670258) translate(175.810087, 7.670258)">
                            <g id="Group-7">
                                <g id="Rectangle-Copy">
                                    <use fill="#FFFFFF" xlink:href="#path-5"></use>
                                    <path stroke-opacity="0.5" stroke="#CCE2FF" stroke-width="3" d="M3.9989843,-1.50053299 L147.987874,-1.47060896 C149.505914,-1.46939482 150.880209,-0.853524056 151.87526,0.141592006 C152.870311,1.13670807 153.486092,2.51104315 153.487207,4.02998499 L153.487207,4.02998499 L153.499466,95.9988988 C153.500582,97.5178818 152.885581,98.8931592 151.890556,99.8887798 C150.89555,100.884382 149.520497,101.500331 148.001016,101.500533 L148.001016,101.500533 L4.01212627,101.470609 C2.49408632,101.469395 1.11979145,100.853524 0.124740365,99.858408 C-0.870310716,98.8632919 -1.48609173,97.4889568 -1.48720713,95.970015 L-1.48720713,95.970015 L-1.49946639,4.00110121 C-1.50058158,2.48211821 -0.885580875,1.10684083 0.109444066,0.11122018 C1.10445021,-0.884381658 2.47950328,-1.50033053 3.9989843,-1.50053299 L3.9989843,-1.50053299 Z" fill-opacity="0.24" fill="#CCE2FF"></path>
                                </g>
                                <rect id="Rectangle-Copy-14" fill="#006DFB" x="66" y="26" width="76" height="3" rx="1.35"></rect>
                                <rect id="Rectangle-Copy-14" fill="#006DFB" opacity="0.1" x="20" y="39" width="122" height="19" rx="4"></rect>
                                <rect id="Rectangle-Copy-8" fill="#006DFB" x="92" y="13" width="12" height="3" rx="1.5"></rect>
                                <rect id="Rectangle-Copy-8" fill="#006DFB" x="90" y="47" width="16" height="3" rx="1.5"></rect>
                                <rect id="Rectangle-Copy-13" fill="#006DFB" x="120" y="13" width="12" height="3" rx="1.5"></rect>
                                <rect id="Rectangle-Copy-13" fill="#006DFB" x="121" y="47" width="10" height="3" rx="1.5"></rect>
                                <rect id="Rectangle-Copy-14" fill="#006DFB" opacity="0.1" x="10" y="68" width="132" height="19" rx="4"></rect>
                                <rect id="Rectangle-Copy-8" fill="#006DFB" x="91" y="76" width="14" height="3" rx="1.5"></rect>
                                <rect id="Rectangle-Copy-13" fill="#006DFB" x="120" y="76" width="12" height="3" rx="1.5"></rect>
                            </g>
                            <rect id="Rectangle-Copy-3" fill="#006DFB" x="68.3550296" y="17.8571429" width="12.591716" height="2.67857143" rx="1.33928571"></rect>
                            <rect id="Rectangle-Copy-3" fill="#006DFB" x="67.4556213" y="50.8928571" width="14.3905325" height="2.67857143" rx="1.33928571"></rect>
                            <rect id="Rectangle-Copy-3" fill="#006DFB" x="69.2544379" y="77.6785714" width="10.7928994" height="2.67857143" rx="1.33928571"></rect>
                        </g>
                    </g>
                    <g id="Group-12" transform="translate(74.000000, 0.000000)">
                        <g id="Rectangle">
                            <use fill="black" fill-opacity="1" filter="url(#filter-7)" xlink:href="#path-6"></use>
                            <rect stroke-opacity="0.5" stroke="#CCE2FF" stroke-width="3" fill="#FFFFFF" fill-rule="evenodd" x="-1.5" y="-1.5" width="191" height="103" rx="4"></rect>
                        </g>
                        <rect id="Rectangle-Copy-4" fill-opacity="0.08" fill="#006DFB" x="10" y="21" width="44" height="70" rx="4"></rect>
                        <rect id="Rectangle-Copy-4" fill-opacity="0.08" fill="#006DFB" x="62" y="44" width="116.133843" height="46.7071183" rx="3.6"></rect>
                        <rect id="Rectangle-Copy-4" fill-opacity="0.08" fill="#006DFB" x="62" y="21" width="116" height="15" rx="4"></rect>
                        <g id="Group-6" transform="translate(93.000000, 52.000000)">
                            <g id="Group-10-Copy" transform="translate(2.584283, 0.000000)">
                                <mask id="mask-9" fill="white">
                                    <use xlink:href="#path-8"></use>
                                </mask>
                                <g id="Mask"></g>
                                <g id="Group-10" mask="url(#mask-9)" stroke-width="11.664">
                                    <g transform="translate(24.873719, 24.644010) rotate(6.000000) translate(-24.873719, -24.644010) translate(-1.643637, -1.811204)">
                                        <path d="M26.6036015,45.2176195 C36.9790686,45.265049 45.3514332,36.9035379 45.3040035,26.5414592 C45.2561693,16.1793806 36.806578,7.74064278 26.4311109,7.69280832 C16.0556437,7.64537886 7.68327913,16.00689 7.73070885,26.3689686 C7.77854305,36.7310473 16.2281343,45.1697851 26.6036015,45.2176195 Z" id="Oval-Copy-15" stroke="#006DFB" stroke-dasharray="59.43535537719727" transform="translate(26.517356, 26.455214) rotate(-221.000000) translate(-26.517356, -26.455214) "></path>
                                        <path d="M26.5912151,45.2758383 C36.9344988,45.3164814 45.2863192,36.9233349 45.2456768,26.5290729 C45.2047369,16.1348108 36.7867809,7.67552881 26.4434972,7.63458958 C16.1002135,7.59394646 7.7483931,15.9870929 7.78903548,26.381355 C7.82997545,36.775617 16.2479314,45.234899 26.5912151,45.2758383 Z" id="Oval-Copy-13" stroke="#B0D0F9" opacity="0.698253813" stroke-dasharray="79.49951477050782" transform="translate(26.517356, 26.455214) rotate(-61.000000) translate(-26.517356, -26.455214) "></path>
                                        <path d="M26.4738097,45.1541652 C36.8842385,45.1300633 45.3430549,36.7387845 45.3671563,26.4116675 C45.3911549,16.0845505 36.9713314,7.73226445 26.5609026,7.75626267 C16.1504738,7.78036452 7.69165746,16.1716434 7.66755603,26.4987604 C7.64355739,36.8258774 16.063381,45.1781634 26.4738097,45.1541652 Z" id="Oval-Copy-15" stroke="#006DFB" stroke-dasharray="18.92845630645752" transform="translate(26.517356, 26.455214) rotate(-165.000000) translate(-26.517356, -26.455214) "></path>
                                    </g>
                                </g>
                            </g>
                            <rect id="Rectangle-Copy-9" fill="#006DFB" x="0" y="24.1142279" width="16.7978364" height="2.69464144" rx="1.34732072"></rect>
                            <rect id="Rectangle-Copy-10" fill="#006DFB" x="38.1181671" y="24.1142279" width="16.7978364" height="2.69464144" rx="1.34732072"></rect>
                            <path d="M24.8582948,14.0534555 L42.0995476,20.1932766 C42.5209738,20.3433516 42.7409474,20.806645 42.5908724,21.2280712 C42.4638638,21.5847244 42.1067426,21.8058248 41.7308707,21.7605143 L23.6639095,19.5825811 C22.775639,19.475502 22.1423583,18.6686117 22.2494374,17.7803412 C22.2538725,17.74355 22.2595687,17.7069219 22.2665159,17.6705214 L22.7235475,15.2758712 C22.8912784,14.3970329 23.7396903,13.8205665 24.6185286,13.9882974 C24.7000009,14.0038468 24.7801586,14.0256302 24.8582948,14.0534555 Z" id="Rectangle-Copy-17" fill="#006DFB" transform="translate(35.441278, 18.024571) rotate(-43.000000) translate(-35.441278, -18.024571) "></path>
                        </g>
                        <rect id="Rectangle-Copy-13" fill="#006DFB" x="10" y="8" width="32" height="3" rx="1.5"></rect>
                        <rect id="Rectangle-Copy-18" fill="#006DFB" x="17" y="28" width="10" height="3" rx="1.5"></rect>
                        <rect id="Rectangle-Copy-18" fill="#006DFB" x="17" y="41" width="10" height="3" rx="1.5"></rect>
                        <rect id="Rectangle-Copy-18" fill="#006DFB" x="17" y="54" width="10" height="3" rx="1.5"></rect>
                        <rect id="Rectangle-Copy-18" fill="#006DFB" x="17" y="68" width="10" height="3" rx="1.5"></rect>
                        <rect id="Rectangle-Copy-18" fill="#006DFB" x="17" y="81" width="10" height="3" rx="1.5"></rect>
                        <rect id="Rectangle-Copy-18" fill="#006DFB" x="37" y="28" width="10" height="3" rx="1.5"></rect>
                        <rect id="Rectangle-Copy-18" fill="#006DFB" x="69" y="27" width="10" height="3" rx="1.5"></rect>
                        <rect id="Rectangle-Copy-18" fill="#006DFB" x="89" y="27" width="36" height="3" rx="1.5"></rect>
                        <rect id="Rectangle-Copy-18" fill="#006DFB" x="135" y="27" width="36" height="3" rx="1.5"></rect>
                        <rect id="Rectangle-Copy-18" fill="#006DFB" x="37" y="41" width="10" height="3" rx="1.5"></rect>
                        <rect id="Rectangle-Copy-18" fill="#006DFB" x="37" y="54" width="10" height="3" rx="1.5"></rect>
                        <rect id="Rectangle-Copy-18" fill="#006DFB" x="37" y="68" width="10" height="3" rx="1.5"></rect>
                        <rect id="Rectangle-Copy-18" fill="#006DFB" x="37" y="81" width="10" height="3" rx="1.5"></rect>
                    </g>
                </g>
            </g>
        </g>
    </g>
</svg>