<svg width="146" height="139" viewBox="0 0 146 139" fill="none" xmlns="http://www.w3.org/2000/svg">
    <circle cx="120" cy="108" r="24" fill="#CCE2FF"/>
    <path d="M129.865 102.813H124.708V99.1667C124.708 99.0254 124.68 98.8856 124.624 98.7557C124.569 98.6258 124.487 98.5085 124.385 98.4111C124.283 98.3136 124.162 98.238 124.029 98.1888C123.897 98.1397 123.756 98.118 123.615 98.125H109.135C108.994 98.118 108.853 98.1397 108.721 98.1888C108.588 98.238 108.467 98.3136 108.365 98.4111C108.263 98.5085 108.181 98.6258 108.126 98.7557C108.07 98.8856 108.041 99.0254 108.042 99.1667V113.75C108.042 113.888 108.097 114.021 108.194 114.118C108.292 114.216 108.424 114.271 108.562 114.271C108.715 114.267 108.862 114.212 108.979 114.115L113.771 109.583H114.292V113.229C114.291 113.37 114.32 113.51 114.376 113.64C114.431 113.77 114.513 113.887 114.615 113.985C114.717 114.082 114.838 114.158 114.971 114.207C115.103 114.256 115.244 114.278 115.385 114.271H125.229L130.021 118.802C130.138 118.9 130.285 118.955 130.437 118.958C130.576 118.958 130.708 118.903 130.806 118.806C130.903 118.708 130.958 118.576 130.958 118.438V103.854C130.958 103.713 130.93 103.573 130.874 103.443C130.819 103.313 130.737 103.196 130.635 103.099C130.533 103.001 130.412 102.926 130.279 102.876C130.147 102.827 130.006 102.805 129.865 102.813ZM112.937 107.5L112.365 108.073L110.125 110.156V100.208H122.625V107.5H112.937ZM128.875 114.844L126.635 112.76L126.062 112.188H116.375V109.583H123.615C123.756 109.59 123.897 109.569 124.029 109.52C124.162 109.47 124.283 109.395 124.385 109.297C124.487 109.2 124.569 109.083 124.624 108.953C124.68 108.823 124.708 108.683 124.708 108.542V104.896H128.875V114.844Z" fill="white"/>
    <circle cx="127" cy="19" r="19" fill="#CCE2FF"/>
    <circle cx="19" cy="120" r="19" fill="#CCE2FF"/>
    <rect x="36.0879" y="38.3365" width="71.6353" height="57.8593" fill="#DAE5F3"/>
    <path d="M94.0917 71.6268H86.8592C85.9002 71.6268 84.9804 72.0078 84.3022 72.686C83.624 73.3642 83.243 74.284 83.243 75.243V82.4754C83.243 83.4345 83.624 84.3543 84.3022 85.0325C84.9804 85.7107 85.9002 86.0916 86.8592 86.0916H94.0917C95.0507 86.0916 95.9705 85.7107 96.6487 85.0325C97.3269 84.3543 97.7079 83.4345 97.7079 82.4754V75.243C97.7079 74.284 97.3269 73.3642 96.6487 72.686C95.9705 72.0078 95.0507 71.6268 94.0917 71.6268ZM94.0917 71.6268H86.8592C85.9002 71.6268 84.9804 72.0078 84.3022 72.686C83.624 73.3642 83.243 74.284 83.243 75.243V82.4754C83.243 83.4345 83.624 84.3543 84.3022 85.0325C84.9804 85.7107 85.9002 86.0916 86.8592 86.0916H94.0917C95.0507 86.0916 95.9705 85.7107 96.6487 85.0325C97.3269 84.3543 97.7079 83.4345 97.7079 82.4754V75.243C97.7079 74.284 97.3269 73.3642 96.6487 72.686C95.9705 72.0078 95.0507 71.6268 94.0917 71.6268Z" fill="#9A9A9A"/>
    <path d="M108.556 35.4648H92.2836V28.4132C92.2999 27.5198 92.0006 26.6493 91.4384 25.9548C90.8762 25.2602 90.087 24.7863 89.2098 24.6162C88.6915 24.5375 88.1623 24.5725 87.6589 24.7187C87.1555 24.8648 86.6898 25.1187 86.2943 25.4627C85.8987 25.8066 85.5826 26.2325 85.368 26.7108C85.1533 27.189 85.0452 27.7082 85.0512 28.2324V35.4648H59.7377V28.4132C59.7541 27.5198 59.4548 26.6493 58.8926 25.9548C58.3303 25.2602 57.5412 24.7863 56.664 24.6162C56.1457 24.5375 55.6165 24.5725 55.1131 24.7187C54.6096 24.8648 54.144 25.1187 53.7484 25.4627C53.3528 25.8066 53.0368 26.2325 52.8221 26.7108C52.6075 27.189 52.4994 27.7082 52.5053 28.2324V35.4648H36.2324C35.2733 35.4648 34.3535 35.8458 33.6754 36.524C32.9972 37.2021 32.6162 38.1219 32.6162 39.081V96.9403C32.6162 97.8994 32.9972 98.8192 33.6754 99.4973C34.3535 100.175 35.2733 100.556 36.2324 100.556H108.556C109.516 100.556 110.435 100.175 111.114 99.4973C111.792 98.8192 112.173 97.8994 112.173 96.9403V39.081C112.173 38.1219 111.792 37.2021 111.114 36.524C110.435 35.8458 109.516 35.4648 108.556 35.4648ZM104.94 93.3241H39.8486V57.162H104.94V93.3241ZM104.94 49.9296H39.8486V42.6972H104.94V49.9296Z" fill="#006DFB"/>
    <path d="M94.0917 71.6268H86.8592C84.8621 71.6268 83.243 73.2459 83.243 75.243V82.4754C83.243 84.4726 84.8621 86.0916 86.8592 86.0916H94.0917C96.0888 86.0916 97.7079 84.4726 97.7079 82.4754V75.243C97.7079 73.2459 96.0888 71.6268 94.0917 71.6268Z" fill="#80B6FF"/>
    <circle cx="19" cy="29" r="18" fill="#CCE2FF"/>
    <path d="M19 111.25L9.83337 117.083V127.917C9.83337 128.138 9.92117 128.35 10.0775 128.506C10.2337 128.662 10.4457 128.75 10.6667 128.75H27.3334C27.5544 128.75 27.7663 128.662 27.9226 128.506C28.0789 128.35 28.1667 128.138 28.1667 127.917V117.083L19 111.25ZM26.375 117.917L19 122.167L11.625 117.917L19 113.208L26.375 117.917ZM11.5 127.083V119.792L19 124.083L26.5 119.792V127.083H11.5Z" fill="white"/>
    <path d="M135.868 21.9892L134.462 20.5832C134.139 20.2356 133.952 19.7833 133.935 19.3091V16.5412C133.935 12.9825 131.562 9.95093 127.344 9.95093C123.127 9.95093 120.754 12.8946 120.754 16.5412V19.6167C120.746 19.8948 120.637 20.1604 120.447 20.3636L118.821 21.9892C118.655 22.1514 118.561 22.3725 118.557 22.6043V25.7676C118.557 26.0006 118.65 26.2241 118.815 26.3889C118.98 26.5537 119.203 26.6463 119.436 26.6463H124.313C124.435 27.3618 124.807 28.011 125.361 28.479C125.916 28.947 126.619 29.2038 127.344 29.2038C128.07 29.2038 128.773 28.947 129.328 28.479C129.882 28.011 130.254 27.3618 130.376 26.6463H135.253C135.486 26.6463 135.709 26.5537 135.874 26.3889C136.039 26.2241 136.131 26.0006 136.131 25.7676V22.6043C136.128 22.3725 136.033 22.1514 135.868 21.9892ZM134.374 24.8889H120.315V22.9997L121.677 21.5938C122.205 21.071 122.506 20.3601 122.512 19.6167V16.5412C122.512 14.2126 123.786 11.7083 127.344 11.7083C130.903 11.7083 132.177 14.3005 132.177 16.5412V19.3091C132.194 20.2399 132.554 21.1316 133.188 21.8134L134.374 22.9997V24.8889Z" fill="white"/>
    <path d="M19.0611 20.7319C20.6853 20.7319 22.2731 21.2136 23.6237 22.116C24.9742 23.0184 26.0268 24.301 26.6484 25.8016C27.27 27.3023 27.4326 28.9535 27.1158 30.5466C26.7989 32.1397 26.0167 33.603 24.8682 34.7515C23.7196 35.9001 22.2563 36.6822 20.6632 36.9991C19.0702 37.316 17.4189 37.1533 15.9183 36.5318C14.4176 35.9102 13.135 34.8576 12.2326 33.507C11.3302 32.1565 10.8486 30.5687 10.8486 28.9444C10.8605 26.77 11.7296 24.6881 13.2672 23.1505C14.8047 21.613 16.8867 20.7439 19.0611 20.7319ZM19.0611 18.9069C17.0758 18.9069 15.1352 19.4956 13.4845 20.5985C11.8339 21.7015 10.5473 23.2691 9.78762 25.1032C9.02791 26.9373 8.82913 28.9555 9.21643 30.9026C9.60373 32.8497 10.5597 34.6382 11.9635 36.042C13.3672 37.4458 15.1558 38.4017 17.1028 38.789C19.0499 39.1763 21.0681 38.9776 22.9023 38.2178C24.7364 37.4581 26.304 36.1716 27.4069 34.5209C28.5099 32.8703 29.0986 30.9296 29.0986 28.9444C29.1046 27.6246 28.8491 26.3166 28.3468 25.0961C27.8445 23.8756 27.1054 22.7666 26.1721 21.8334C25.2388 20.9001 24.1299 20.161 22.9094 19.6587C21.6889 19.1564 20.3809 18.9009 19.0611 18.9069Z" fill="white"/>
    <path d="M23.6236 32.5944C23.4609 32.5977 23.3013 32.5498 23.1673 32.4575L18.1486 29.4462V24.3819C18.1486 24.1399 18.2447 23.9078 18.4158 23.7366C18.587 23.5655 18.819 23.4694 19.0611 23.4694C19.3031 23.4694 19.5352 23.5655 19.7063 23.7366C19.8774 23.9078 19.9736 24.1399 19.9736 24.3819V28.4425L24.0798 30.9062C24.1851 30.9628 24.2775 31.0405 24.3514 31.1345C24.4252 31.2285 24.4788 31.3367 24.5087 31.4524C24.5387 31.568 24.5445 31.6887 24.5256 31.8067C24.5068 31.9247 24.4637 32.0375 24.3992 32.1381C24.324 32.2779 24.212 32.3943 24.0752 32.4748C23.9384 32.5552 23.7822 32.5966 23.6236 32.5944Z" fill="white"/>
</svg>
