<svg id="Layer_1" data-name="Layer 1" xmlns="http://www.w3.org/2000/svg" xmlns:xlink="http://www.w3.org/1999/xlink" viewBox="0 0 428.64 150"><defs><style>.cls-1{fill:url(#linear-gradient);}.cls-2{fill:url(#linear-gradient-2);}.cls-3{fill:url(#linear-gradient-3);}.cls-4{fill:#fff;}.cls-5{fill:url(#linear-gradient-4);}.cls-6{fill:url(#linear-gradient-5);}.cls-7{fill:url(#linear-gradient-6);}.cls-8{fill:url(#linear-gradient-7);}.cls-9{fill:url(#linear-gradient-8);}.cls-10{fill:url(#linear-gradient-9);}.cls-11{fill:url(#linear-gradient-10);}.cls-12{fill:url(#linear-gradient-11);}.cls-13{fill:url(#linear-gradient-12);}</style><linearGradient id="linear-gradient" x1="73.36" y1="35.63" x2="58.2" y2="9.38" gradientUnits="userSpaceOnUse"><stop offset="0" stop-color="#ea3917"/><stop offset="1" stop-color="#841412"/></linearGradient><linearGradient id="linear-gradient-2" x1="58.41" y1="35.75" x2="42.84" y2="62.72" xlink:href="#linear-gradient"/><linearGradient id="linear-gradient-3" x1="65.78" y1="40" x2="96.09" y2="40" xlink:href="#linear-gradient"/><linearGradient id="linear-gradient-4" x1="42.89" y1="88.12" x2="27.73" y2="61.88" xlink:href="#linear-gradient"/><linearGradient id="linear-gradient-5" x1="27.73" y1="88.13" x2="12.58" y2="114.38" xlink:href="#linear-gradient"/><linearGradient id="linear-gradient-6" x1="103.51" y1="70.63" x2="88.35" y2="44.38" xlink:href="#linear-gradient"/><linearGradient id="linear-gradient-7" x1="88.35" y1="70.63" x2="73.2" y2="96.87" xlink:href="#linear-gradient"/><linearGradient id="linear-gradient-8" x1="95.93" y1="92.5" x2="126.24" y2="92.5" xlink:href="#linear-gradient"/><linearGradient id="linear-gradient-9" x1="73.2" y1="123.13" x2="58.04" y2="96.88" xlink:href="#linear-gradient"/><linearGradient id="linear-gradient-10" x1="54.25" y1="120.94" x2="46.68" y2="134.06" xlink:href="#linear-gradient"/><linearGradient id="linear-gradient-11" x1="65.62" y1="127.5" x2="95.93" y2="127.5" xlink:href="#linear-gradient"/><linearGradient id="linear-gradient-12" x1="35.31" y1="92.5" x2="65.62" y2="92.5" xlink:href="#linear-gradient"/></defs><polygon class="cls-1" points="96.09 22.5 96.09 22.5 65.78 5 35.47 22.5 35.47 22.5 65.78 40 96.09 22.5"/><polygon class="cls-2" points="65.78 75.96 65.78 40 35.47 22.5 35.47 58.46 65.78 75.96"/><polygon class="cls-3" points="65.78 57.5 96.09 40 96.09 22.5 65.78 40 65.78 57.5"/><path class="cls-4" d="M175.31,86.91l-28.49-51.3H157A13.82,13.82,0,0,1,169.26,43l14.17,27.05h1l14.11-27a13.81,13.81,0,0,1,12.24-7.42H221l-28.54,51.3V117.5H183.6a8.29,8.29,0,0,1-8.29-8.29Z"/><path class="cls-4" d="M214.66,99.74v-.11c0-11.24,8.68-17.82,24.23-18.73L254,80V74.83c0-5.4-3.68-8.46-10.49-8.46-6,0-9.76,2.1-11.07,5.79l-.11.23H217l.06-.51c1.31-11,11.63-18.22,27.35-18.22,16.57,0,25.94,7.83,25.94,21.17V117.5h-8.06a8.29,8.29,0,0,1-8.29-8.29h-1c-3.18,5.79-9.76,9.25-17.93,9.25C223.11,118.46,214.66,111.09,214.66,99.74Zm25.93,6.64c7.66,0,13.39-5,13.39-11.64V90.15l-12.59.79c-7.1.46-10.56,3.12-10.56,7.66v.12C230.83,103.48,234.86,106.38,240.59,106.38Z"/><path class="cls-4" d="M272.64,55h7.25A13.81,13.81,0,0,1,293.2,65.16L303.34,102h1l10.05-36.82A13.82,13.82,0,0,1,327.73,55h6.88L313,117.5H301.64a10.21,10.21,0,0,1-9.65-6.86Z"/><path class="cls-4" d="M338.65,36.15a9.34,9.34,0,1,1,8.61,9.25A9.3,9.3,0,0,1,338.65,36.15Zm1,18.87H348a8.29,8.29,0,0,1,8.29,8.29V117.5H348a8.29,8.29,0,0,1-8.28-8.29Z"/><path class="cls-4" d="M367.05,55h8.28a8.29,8.29,0,0,1,8.29,8.29v1.36h1c2.84-6.75,9-11,17.93-11,13.91,0,21.4,8.51,21.4,23.44v40.4h-8.29a8.29,8.29,0,0,1-8.28-8.29V80.84c0-8.8-3.64-13.45-11.47-13.45-7.66,0-12.31,5.51-12.31,14V117.5h-8.29a8.29,8.29,0,0,1-8.28-8.29Z"/><polygon class="cls-5" points="65.62 75 65.62 75 35.31 57.5 5 75 5 75 35.31 92.5 65.62 75"/><polygon class="cls-6" points="35.31 127.5 35.31 92.5 5 75 5 110 35.31 127.5"/><polygon class="cls-7" points="126.24 57.5 126.24 57.5 95.93 40 65.62 57.5 65.62 57.5 95.93 75 126.24 57.5"/><polygon class="cls-8" points="95.93 110 95.93 75 65.62 57.5 65.62 92.5 95.93 110"/><polygon class="cls-9" points="95.93 127.5 126.24 110 126.24 57.5 95.93 75 95.93 127.5"/><polygon class="cls-10" points="95.93 110 95.93 110 65.62 92.5 35.31 110 35.31 110 65.62 127.5 95.93 110"/><polygon class="cls-11" points="65.62 145 65.62 127.5 35.31 110 35.31 127.5 65.62 145"/><polygon class="cls-12" points="65.62 145 95.93 127.5 95.93 110 65.62 127.5 65.62 145"/><polygon class="cls-13" points="35.31 110 65.62 92.5 65.62 75 35.31 92.5 35.31 110"/></svg>