<svg id="Layer_1" data-name="Layer 1" xmlns="http://www.w3.org/2000/svg" xmlns:xlink="http://www.w3.org/1999/xlink" viewBox="0 0 130 150"> <defs> <style>.cls-1{fill:url(#linear-gradient);}.cls-2{fill:url(#linear-gradient-2);}.cls-3{fill:url(#linear-gradient-3);}.cls-5{fill:url(#linear-gradient-4);}.cls-6{fill:url(#linear-gradient-5);}.cls-7{fill:url(#linear-gradient-6);}.cls-8{fill:url(#linear-gradient-7);}.cls-9{fill:url(#linear-gradient-8);}.cls-10{fill:url(#linear-gradient-9);}.cls-11{fill:url(#linear-gradient-10);}.cls-12{fill:url(#linear-gradient-11);}.cls-13{fill:url(#linear-gradient-12);}</style> <linearGradient id="linear-gradient" x1="73.36" y1="35.63" x2="58.2" y2="9.38" gradientUnits="userSpaceOnUse"> <stop offset="0" stop-color="#ea3917"/> <stop offset="1" stop-color="#841412"/> </linearGradient> <linearGradient id="linear-gradient-2" x1="58.41" y1="35.75" x2="42.84" y2="62.72" xlink:href="#linear-gradient"/> <linearGradient id="linear-gradient-3" x1="65.78" y1="40" x2="96.09" y2="40" xlink:href="#linear-gradient"/> <linearGradient id="linear-gradient-4" x1="42.89" y1="88.12" x2="27.73" y2="61.88" xlink:href="#linear-gradient"/> <linearGradient id="linear-gradient-5" x1="27.73" y1="88.13" x2="12.58" y2="114.38" xlink:href="#linear-gradient"/> <linearGradient id="linear-gradient-6" x1="103.51" y1="70.63" x2="88.35" y2="44.38" xlink:href="#linear-gradient"/> <linearGradient id="linear-gradient-7" x1="88.35" y1="70.63" x2="73.2" y2="96.87" xlink:href="#linear-gradient"/> <linearGradient id="linear-gradient-8" x1="95.93" y1="92.5" x2="126.24" y2="92.5" xlink:href="#linear-gradient"/> <linearGradient id="linear-gradient-9" x1="73.2" y1="123.13" x2="58.04" y2="96.88" xlink:href="#linear-gradient"/> <linearGradient id="linear-gradient-10" x1="54.25" y1="120.94" x2="46.68" y2="134.06" xlink:href="#linear-gradient"/> <linearGradient id="linear-gradient-11" x1="65.62" y1="127.5" x2="95.93" y2="127.5" xlink:href="#linear-gradient"/> <linearGradient id="linear-gradient-12" x1="35.31" y1="92.5" x2="65.62" y2="92.5" xlink:href="#linear-gradient"/> </defs> <polygon class="cls-1" points="96.09 22.5 96.09 22.5 65.78 5 35.47 22.5 35.47 22.5 65.78 40 96.09 22.5"/> <polygon class="cls-2" points="65.78 75.96 65.78 40 35.47 22.5 35.47 58.46 65.78 75.96"/> <polygon class="cls-3" points="65.78 57.5 96.09 40 96.09 22.5 65.78 40 65.78 57.5"/> <polygon class="cls-5" points="65.62 75 65.62 75 35.31 57.5 5 75 5 75 35.31 92.5 65.62 75"/> <polygon class="cls-6" points="35.31 127.5 35.31 92.5 5 75 5 110 35.31 127.5"/> <polygon class="cls-7" points="126.24 57.5 126.24 57.5 95.93 40 65.62 57.5 65.62 57.5 95.93 75 126.24 57.5"/> <polygon class="cls-8" points="95.93 110 95.93 75 65.62 57.5 65.62 92.5 95.93 110"/> <polygon class="cls-9" points="95.93 127.5 126.24 110 126.24 57.5 95.93 75 95.93 127.5"/> <polygon class="cls-10" points="95.93 110 95.93 110 65.62 92.5 35.31 110 35.31 110 65.62 127.5 95.93 110"/> <polygon class="cls-11" points="65.62 145 65.62 127.5 35.31 110 35.31 127.5 65.62 145"/> <polygon class="cls-12" points="65.62 145 95.93 127.5 95.93 110 65.62 127.5 65.62 145"/> <polygon class="cls-13" points="35.31 110 65.62 92.5 65.62 75 35.31 92.5 35.31 110"/> </svg>